<svg width="2116" height="1155" viewBox="0 0 2116 1155" fill="none" xmlns="http://www.w3.org/2000/svg">
<g clip-path="url(#clip0_1980_2710)">
<rect width="2116" height="1154.18" fill="white"/>
<rect width="192.364" height="192.364" fill="#FCFCFC"/>
<rect x="384.727" width="192.364" height="192.364" fill="#142653"/>
<rect x="192.364" y="961.816" width="192.364" height="192.364" fill="#142653"/>
<rect x="961.818" y="192.363" width="192.364" height="192.364" fill="#142653"/>
<rect x="1154.18" y="769.453" width="192.364" height="192.364" fill="white"/>
<rect x="1154.18" width="192.364" height="192.364" fill="#142653"/>
<rect x="1731.27" width="192.364" height="192.364" fill="#142653"/>
<rect x="1923.64" y="961.816" width="192.364" height="192.364" fill="#142653"/>
<rect x="577.091" width="192.364" height="192.364" fill="#29BAC1"/>
<rect x="1346.55" y="582.863" width="192.364" height="192.364" fill="#142653"/>
<rect x="1346.55" y="771.449" width="192.364" height="192.364" fill="#29BAC1"/>
<rect x="1731.27" y="961.816" width="192.364" height="192.364" fill="#29BAC1"/>
<rect x="1923.64" width="192.364" height="192.364" fill="#29BAC1"/>
<rect x="1923.64" y="577.09" width="192.364" height="192.364" fill="#29BAC1"/>
<rect x="1731.27" y="384.727" width="192.364" height="192.364" fill="#142653"/>
<rect x="961.818" y="961.816" width="192.364" height="192.364" fill="#29BAC1"/>
<rect x="384.727" y="961.816" width="192.364" height="192.364" fill="#29BAC1"/>
<rect x="384.727" y="384.727" width="192.364" height="192.364" fill="#29BAC1"/>
<rect x="192.364" y="577.09" width="192.364" height="192.364" fill="white"/>
<rect x="1923.64" y="769.453" width="192.364" height="192.364" fill="white"/>
<rect x="769.455" y="961.816" width="192.364" height="192.364" fill="white"/>
<rect x="1731.27" y="192.363" width="192.364" height="192.364" fill="#29BAC1"/>
<rect y="192.363" width="192.364" height="192.364" fill="#29BAC1"/>
<rect y="384.727" width="192.364" height="384.727" fill="#D3D3D3"/>
<rect y="384.727" width="192.364" height="384.727" fill="#142653"/>
<rect x="384.727" y="577.09" width="192.364" height="384.727" fill="#142653"/>
<rect x="1731.27" y="577.09" width="192.364" height="384.727" fill="#142653"/>
<rect x="1923.64" y="192.363" width="192.364" height="192.364" fill="#142653"/>
<rect x="769.455" y="192.363" width="192.364" height="384.727" fill="#29BAC1"/>
<rect y="961.816" width="192.364" height="384.727" transform="rotate(-90 0 961.816)" fill="#29BAC1"/>
<rect x="1538.91" y="582.969" width="192.364" height="384.727" fill="#29BAC1"/>
<rect x="384.727" y="384.727" width="192.364" height="384.727" transform="rotate(-90 384.727 384.727)" fill="#29BAC1"/>
<rect x="384.727" y="384.727" width="192.364" height="384.727" transform="rotate(-90 384.727 384.727)" fill="#142653"/>
<rect x="1154.18" y="1154.18" width="192.364" height="384.727" transform="rotate(-90 1154.18 1154.18)" fill="#142653"/>
<rect x="1346.55" y="192.363" width="192.364" height="384.727" transform="rotate(-90 1346.55 192.363)" fill="#29BAC1"/>
<rect x="192.364" width="192.364" height="577.091" fill="#29BAC1"/>
<rect x="577.091" y="577.09" width="192.364" height="577.091" fill="#29BAC1"/>
<rect x="1154.18" y="192.363" width="192.364" height="577.091" fill="#29BAC1"/>
<rect x="769.455" y="577.09" width="384.727" height="384.727" fill="#142653"/>
<rect x="1346.01" y="192.008" width="384.727" height="384.727" fill="white"/>
<rect x="1538.91" y="961.816" width="192.364" height="192.364" fill="#142653"/>
</g>
<defs>
<clipPath id="clip0_1980_2710">
<rect width="2116" height="1154.18" fill="white"/>
</clipPath>
</defs>
</svg>
